# xmcd
#
# Track frame offsets:
#	150
#	17317
#	35211
#	51419
#	66968
#	84972
#	101746
#	118741
#	134324
#	153959
#	172497
#	189077
#	209109
#	226374
#	241819
#	259443
#	276907
#
# Disc length: 3919 seconds
#
# Revision: 1
# Processed by: cddbd v1.5.1PL0 Copyright (c) Steve Scherf et al.
# Submitted via: audiograbber 1.83.01
#
DISCID=fa0f4d11
DTITLE=Backstreet boys - Never gone and bonus tracks
DYEAR=2005
DGENRE=Pop
TTITLE0=climbing the walls
TTITLE1=poster girl
TTITLE2=beatiful woman
TTITLE3=forces of nature
TTITLE4=incomplete
TTITLE5=the unloved
TTITLE6=never gone
TTITLE7=love is
TTITLE8=over her
TTITLE9=color my world
TTITLE10=memories
TTITLE11=drowning
TTITLE12=shape of my heart
TTITLE13=the call
TTITLE14=show me the being lonely
TTITLE15=larger than life
TTITLE16=the one
EXTD=
EXTT0=
EXTT1=
EXTT2=
EXTT3=
EXTT4=
EXTT5=
EXTT6=
EXTT7=
EXTT8=
EXTT9=
EXTT10=
EXTT11=
EXTT12=
EXTT13=
EXTT14=
EXTT15=
EXTT16=
PLAYORDER=
